<?xml version="1.0" encoding="utf-8" ?><svg xmlns="http://www.w3.org/2000/svg" xmlns:xlink="http://www.w3.org/1999/xlink" width="1024" height="1024" viewBox="0 0 1024 1024"><path fill="white" d="M0 0L1024 0L1024 1024L0 1024L0 0Z"/><path fill="#10094E" d="M511.878 280.094C519.852 279.684 547.976 289.549 556.773 292.246L641.721 318.638L695.646 335.532C705.639 338.622 715.818 341.658 725.708 345.052C734.902 348.207 734.161 369.065 726.59 373.51C718.124 378.481 709.079 383.122 700.328 387.615L662.725 407.295L554.773 464.055C554.071 483.138 554.805 507.825 554.792 527.367L554.713 660.073L554.647 701.369C554.638 705.573 555.382 728.549 552.752 730.724C548.922 733.891 532.642 744.799 527.93 744.594C521.389 744.311 509.522 738.292 502.883 735.465L464.167 718.855L400.127 691.337C377.305 681.722 354.541 671.968 331.838 662.075C322.226 657.993 312.553 654.12 302.93 650.019C296.885 647.442 292.598 643.786 292.149 636.715C291.72 629.948 291.909 622.993 291.894 616.205L291.666 579.929L291.616 450.528C291.677 443.073 290.502 410.108 293.582 405.928C294.846 404.213 296.734 403.262 298.836 403.094C302.54 402.797 327.409 411.64 330.058 414.468C331.336 415.832 331.215 418.299 331.298 420.108C331.652 427.887 331.379 435.794 331.372 443.588L331.373 486.503L331.482 620.052C340.758 624.635 352.79 629.478 362.46 633.695C383.885 643.207 405.423 652.461 427.071 661.454C447.017 670.073 467.027 678.544 487.1 686.866C495.297 690.296 504.402 694.687 512.553 697.64C512.855 682.805 512.584 667.382 512.661 652.478L512.996 537.287L513.025 494.682C513.024 487.006 513.448 476.331 512.139 468.915C511.581 465.746 490.254 458.8 486.839 457.552L450.917 444.398L334.531 401.433C322.99 397.163 308.965 392.866 298.231 387.659C287.071 382.245 290.4 361.354 302.921 356.717C315.633 352.008 328.268 347.379 340.838 342.62C374.368 330.049 407.983 317.706 441.68 305.591L489.306 287.942C495.078 285.829 506.218 281.454 511.878 280.094Z"/><path fill="white" d="M512.666 315.458C540.628 323.65 570.868 333.593 598.673 342.525L667.82 364.609C622.696 387.037 576.479 408.73 531.633 431.343C529.219 430.198 526.617 429.244 524.122 428.268C491.562 417.24 459.104 405.913 426.752 394.288C408.458 387.861 383.46 379.872 366.066 372.285C379.823 366.352 397.593 360.203 411.852 354.657L512.666 315.458Z"/><path fill="#FA6524" d="M511.548 328.992C514.878 328.597 521.945 331.208 525.457 332.267C535.507 335.272 545.521 338.394 555.498 341.633C563.427 344.129 622.266 361.417 624.223 364.208C624.929 365.229 625.142 366.513 624.805 367.708C624.127 370.06 621.105 371.452 619.115 372.466C606.585 378.848 593.873 384.87 581.306 391.178L551.62 406.216C545.432 409.342 538.845 412.585 532.389 415.201C530.75 415.865 528.86 415.178 527.098 414.723C514.74 411.282 415.029 376.071 413.396 373.94C412.471 372.732 412.82 370.78 413.23 369.48C418.238 364.427 497.848 334.974 511.548 328.992Z"/><path fill="#10094E" d="M725.841 388.502C730.145 389.305 731.707 392.072 731.65 396.397C731.529 405.536 731.45 414.614 731.461 423.757L731.516 472.806C731.524 479.584 733.349 499.093 727.135 502.866C687.999 526.624 648.306 549.607 608.982 573.091L609.118 654.241C637.463 637.013 667.669 616.301 695.979 599.934C695.97 578.972 695.423 557.402 696.438 536.575C696.566 533.941 723.795 516.371 729.544 518.687C730.936 520.906 731.272 523.967 731.45 526.549C732.393 540.25 731.528 557.369 731.497 571.402C731.474 582.238 732.616 601.015 730.646 611.063C730.238 613.146 729.855 615.145 728.551 616.876C723.125 624.079 693.827 641.46 684.483 647.639L608.851 697.166C600.447 702.55 580.737 719.693 571.437 714.369C567.934 712.364 569.082 675.765 569.088 669.779L569.189 600.383L569.037 516.61C569.016 501.942 568.64 485.694 569.15 471.148C575.897 463.793 593.783 457.25 602.901 451.842C604.024 451.175 605.971 451.249 607.25 451.593C609.926 454.208 609.043 478.367 609.037 483.764C608.914 500.325 609.065 516.887 609.489 533.443L660.282 504.066C672.104 497.225 683.803 490.062 695.918 483.768C696.095 474.091 694.994 408.236 696.711 404.765C698.836 400.471 720.908 390.125 725.841 388.502Z"/><path fill="#FA6524" d="M428.051 452.374C429.198 452.328 430.596 452.425 431.665 452.827C450.82 460.032 469.803 467.684 489.051 474.655C490.919 475.331 493.22 476.779 494.828 477.903C495.854 479.412 496.417 483.376 496.42 485.275C496.468 510.633 496.619 536.03 496.323 561.383C496.29 564.167 494.123 565.955 492.166 567.57C489.31 567.594 481.987 564.41 478.95 563.236C470.755 560.092 462.601 556.841 454.491 553.484C445.999 550.046 436.743 546.581 428.435 542.704C426.892 541.983 425.503 539.623 424.556 538.173C424.087 529.845 424.404 518.818 424.342 510.288C424.215 492.648 424.041 474.336 424.56 456.718C425.837 454.677 426.373 454.161 428.051 452.374Z"/><path fill="#FA6524" d="M344.452 421.952C353.686 421.713 382.441 437.19 393.296 439.966C396.692 440.834 406.879 445.412 409.776 447.487C412.105 450.93 411.712 464.621 411.689 469.033C411.587 489.175 412.205 509.438 411.408 529.547C411.335 531.402 408.994 532.939 407.72 533.745C402.248 534.373 345.576 511.61 341.193 507.087C339.59 502.051 340.546 436.107 340.666 426.201C340.687 424.433 342.931 422.941 344.452 421.952Z"/><path fill="#FA6524" d="M428.514 559.922C431.972 560.213 435.25 561.697 438.43 563.033C455.672 570.282 473.269 576.66 490.582 583.712C492.315 584.418 494.825 585.912 495.978 587.339C497.274 592.877 496.877 602.715 496.86 608.785L496.789 639.627C496.827 648.279 497.194 658.193 496.768 666.879C496.658 669.135 494.328 670.677 492.6 671.828C492.325 671.849 492.051 671.88 491.776 671.891C487.965 672.04 438.323 651.506 431.576 648.173C429.358 647.078 427.341 645.854 425.527 644.15C423.665 638.899 424.558 573.962 424.74 563.604C424.768 562.012 427.046 560.722 428.514 559.922Z"/><path fill="#FA6524" d="M344.083 526.428C349.548 526.617 407.791 550.304 410.885 553.715C413.291 562.377 411.261 619.099 411.517 632.213C411.558 634.311 409.501 635.714 407.908 636.893C402.373 637.318 392.884 632.518 387.322 630.225C374.594 624.817 361.27 620.003 348.725 614.248C343.137 611.685 340.633 609.645 340.57 603.515C340.328 579.968 340.017 556.349 340.181 532.802C340.204 529.627 341.894 528.229 344.083 526.428Z"/><path fill="#FA6524" d="M680.292 412.531C681.761 413.043 684.378 414.069 684.5 415.765C685.02 423.018 686.268 473.85 683.645 476.514C678.226 482.016 632.287 508.353 625.08 510.469C623.423 510.07 620.936 509.066 620.853 507.258C620.48 499.174 619.353 448.407 621.95 444.728C623.467 442.579 677.314 413.378 680.292 412.531Z"/><path fill="#FA6524" d="M679.355 543.995C679.629 544.015 679.905 544.018 680.176 544.056C682.026 544.313 683.514 544.963 684.561 546.563C686.028 548.803 686.133 588.468 684.816 591.849C684.078 593.742 681.592 595.562 679.948 596.781C674.418 600.882 668.111 604.099 662.29 607.804C653.023 613.704 635.551 625.967 626.114 629.669C625.329 629.774 624.711 629.814 623.932 629.568C622.8 629.21 622.068 628.491 621.524 627.451C619.875 624.299 619.815 582.479 621.219 579.676C622.143 577.833 624.085 576.347 625.725 575.172C632.938 570.008 641.151 565.737 648.793 561.221C658.748 555.34 668.793 548.7 679.355 543.995Z"/></svg>